<svg width="640" height="360" viewBox="0 0 640 360" fill="none" xmlns="http://www.w3.org/2000/svg">
  <g filter="url(#shadow)">
    <path d="M102 221C121 221 164 222 213 214C262 206 311 173 338 165C364 157 382 162 407 178L470 218C483 226 499 230 515 230H566C586 230 602 246 602 266C602 286 586 302 566 302H149C126 302 105 283 101 260L95 233C93 226 97 221 102 221Z" fill="url(#paint0_linear)"/>
    <path d="M191 169C226 175 246 174 279 164C294 159 312 152 329 149C347 146 366 148 386 159L433 185C442 190 446 202 441 211C437 219 427 223 418 220L365 204C352 200 338 199 325 202L255 216C238 220 220 221 203 220L145 215C133 214 123 206 121 195C119 182 130 171 142 171H166C174 171 183 171 191 169Z" fill="url(#paint1_linear)"/>
    <path d="M428 192L469 218" stroke="#D5D8E1" stroke-width="9" stroke-linecap="round"/>
    <path d="M247 165L314 158" stroke="#F6F7FB" stroke-width="8" stroke-linecap="round" opacity="0.8"/>
    <path d="M214 182L288 177" stroke="#F6F7FB" stroke-width="8" stroke-linecap="round" opacity="0.72"/>
    <path d="M189 198L268 195" stroke="#F6F7FB" stroke-width="8" stroke-linecap="round" opacity="0.62"/>
    <path d="M147 220H522" stroke="#1A1C22" stroke-width="12" stroke-linecap="round" opacity="0.16"/>
    <path d="M153 250H205" stroke="#F6E4B0" stroke-width="16" stroke-linecap="round"/>
    <path d="M228 250H294" stroke="#F6E4B0" stroke-width="16" stroke-linecap="round"/>
    <path d="M321 250H394" stroke="#F6E4B0" stroke-width="16" stroke-linecap="round"/>
    <path d="M418 250H540" stroke="#F6E4B0" stroke-width="16" stroke-linecap="round"/>
    <path d="M183 190C229 199 281 194 333 174" stroke="#A3A8B3" stroke-width="12" stroke-linecap="round" opacity="0.6"/>
  </g>
  <defs>
    <filter id="shadow" x="70" y="120" width="560" height="212" filterUnits="userSpaceOnUse" color-interpolation-filters="sRGB">
      <feFlood flood-opacity="0" result="BackgroundImageFix"/>
      <feColorMatrix in="SourceAlpha" type="matrix" values="0 0 0 0 0 0 0 0 0 0 0 0 0 0 0 0 0 0 127 0" result="hardAlpha"/>
      <feOffset dy="12"/>
      <feGaussianBlur stdDeviation="12"/>
      <feComposite in2="hardAlpha" operator="out"/>
      <feColorMatrix type="matrix" values="0 0 0 0 0.06 0 0 0 0 0.06 0 0 0 0 0.08 0 0 0 0.22 0"/>
      <feBlend mode="normal" in2="BackgroundImageFix" result="effect1_dropShadow"/>
      <feBlend mode="normal" in="SourceGraphic" in2="effect1_dropShadow" result="shape"/>
    </filter>
    <linearGradient id="paint0_linear" x1="126" y1="173" x2="528" y2="299" gradientUnits="userSpaceOnUse">
      <stop stop-color="#F3F5FA"/>
      <stop offset="0.4" stop-color="#AAB0BD"/>
      <stop offset="1" stop-color="#2B2D35"/>
    </linearGradient>
    <linearGradient id="paint1_linear" x1="152" y1="161" x2="409" y2="229" gradientUnits="userSpaceOnUse">
      <stop stop-color="#474B55"/>
      <stop offset="0.6" stop-color="#1F2128"/>
      <stop offset="1" stop-color="#0E0F13"/>
    </linearGradient>
  </defs>
</svg>
