<svg width="640" height="360" viewBox="0 0 640 360" fill="none" xmlns="http://www.w3.org/2000/svg">
  <g filter="url(#shadow)">
    <path d="M102 223C121 223 162 224 214 216C267 208 320 171 349 164C377 157 403 163 431 182L494 223C505 230 518 234 532 234H569C590 234 607 251 607 272C607 293 590 310 569 310H154C131 310 110 294 106 271L99 237C98 229 101 223 102 223Z" fill="url(#paint0_linear)"/>
    <path d="M191 168C231 177 259 175 300 160C340 145 385 147 423 168L461 189C473 196 475 212 466 221C459 228 448 231 438 229L392 217C369 211 345 210 322 214L253 226C232 230 210 230 190 228L129 220C116 218 106 208 106 194C106 180 117 169 130 169H159C171 169 181 169 191 168Z" fill="url(#paint1_linear)"/>
    <path d="M432 196L483 221" stroke="#FFF0E8" stroke-width="9" stroke-linecap="round"/>
    <path d="M236 164L318 155" stroke="#FFF9F8" stroke-width="8" stroke-linecap="round" opacity="0.88"/>
    <path d="M214 183L292 175" stroke="#FFF9F8" stroke-width="8" stroke-linecap="round" opacity="0.76"/>
    <path d="M191 201L270 194" stroke="#FFF9F8" stroke-width="8" stroke-linecap="round" opacity="0.6"/>
    <path d="M151 256H534" stroke="#FFD4C3" stroke-width="16" stroke-linecap="round"/>
    <path d="M184 190C232 198 287 193 343 171" stroke="#D33140" stroke-width="11" stroke-linecap="round" opacity="0.56"/>
  </g>
  <defs>
    <filter id="shadow" x="75" y="119" width="560" height="223" filterUnits="userSpaceOnUse" color-interpolation-filters="sRGB">
      <feFlood flood-opacity="0" result="BackgroundImageFix"/>
      <feColorMatrix in="SourceAlpha" type="matrix" values="0 0 0 0 0 0 0 0 0 0 0 0 0 0 0 0 0 0 127 0" result="hardAlpha"/>
      <feOffset dy="12"/>
      <feGaussianBlur stdDeviation="12"/>
      <feComposite in2="hardAlpha" operator="out"/>
      <feColorMatrix type="matrix" values="0 0 0 0 0.14 0 0 0 0 0.04 0 0 0 0 0.06 0 0 0 0.24 0"/>
      <feBlend mode="normal" in2="BackgroundImageFix" result="effect1_dropShadow"/>
      <feBlend mode="normal" in="SourceGraphic" in2="effect1_dropShadow" result="shape"/>
    </filter>
    <linearGradient id="paint0_linear" x1="120" y1="176" x2="541" y2="303" gradientUnits="userSpaceOnUse">
      <stop stop-color="#FFE4DA"/>
      <stop offset="0.48" stop-color="#F26752"/>
      <stop offset="1" stop-color="#6C202B"/>
    </linearGradient>
    <linearGradient id="paint1_linear" x1="124" y1="166" x2="419" y2="231" gradientUnits="userSpaceOnUse">
      <stop stop-color="#FFC0A6"/>
      <stop offset="0.56" stop-color="#DE4B4E"/>
      <stop offset="1" stop-color="#9E2232"/>
    </linearGradient>
  </defs>
</svg>
